<svg width="512" height="512" viewBox="0 0 512 512" fill="none" xmlns="http://www.w3.org/2000/svg">
<rect x="165" y="427" width="80" height="80" fill="#D68AFF"/>
<rect x="85" y="267" width="80" height="80" fill="#D68AFF"/>
<rect x="5" y="107" width="80" height="80" fill="#D68AFF"/>
<rect x="165" y="347" width="80" height="80" fill="#AD2AFF"/>
<rect x="245" y="427" width="80" height="80" fill="#AD2AFF"/>
<rect x="245" y="347" width="80" height="80" fill="#7100DA"/>
<rect x="245" y="268" width="80" height="80" fill="#5A00AD"/>
<rect x="85" y="107" width="80" height="80" fill="#7100DA"/>
<rect x="85" y="28" width="80" height="80" fill="#7100DA"/>
<rect x="165" y="28" width="80" height="80" fill="#7100DA"/>
<rect x="5" y="28" width="80" height="80" fill="#AD2AFF"/>
<rect x="165" y="267" width="80" height="80" fill="#7100DA"/>
<rect x="165" y="188" width="80" height="80" fill="#7100DA"/>
<rect x="85" y="187" width="80" height="80" fill="#AD2AFF"/>
<path d="M510 255.977C510 341.22 450.971 495.495 256.375 507C358 410 332.074 255.977 259.038 255.977C164.992 255.977 162.95 6 264.5 6C449.591 6 510 170.734 510 255.977Z" fill="url(#paint0_linear_812_2)"/>
<path d="M389 131C389 200.036 331.245 256 260 256C188.755 256 131 200.036 131 131C131 61.9644 188.755 6 260 6C331.245 6 389 61.9644 389 131Z" fill="url(#paint1_linear_812_2)"/>
<line x1="123.534" y1="268.131" x2="410.619" y2="268.131" stroke="black" stroke-width="9"/>
<rect x="302.263" y="236.351" width="64.6491" height="64.6491" rx="4" transform="rotate(90 302.263 236.351)" fill="white" stroke="black" stroke-width="5"/>
<ellipse cx="123.596" cy="267.5" rx="33.5" ry="34.0877" transform="rotate(90 123.596 267.5)" fill="black"/>
<circle cx="410.991" cy="267.5" r="33.5" transform="rotate(90 410.991 267.5)" fill="black"/>
<defs>
<linearGradient id="paint0_linear_812_2" x1="465.978" y1="227.737" x2="135.632" y2="466.215" gradientUnits="userSpaceOnUse">
<stop stop-color="#FF8989"/>
<stop offset="1" stop-color="#B900B3"/>
</linearGradient>
<linearGradient id="paint1_linear_812_2" x1="328.5" y1="70" x2="27.5" y2="108.5" gradientUnits="userSpaceOnUse">
<stop stop-color="#FF8989"/>
<stop offset="1" stop-color="#B900B3"/>
</linearGradient>
</defs>
</svg>
