<svg width="512" height="512" viewBox="0 0 512 512" fill="none" xmlns="http://www.w3.org/2000/svg">
<g clip-path="url(#clip0_770_18067)">
<path d="M505.5 128.5C505.5 356.356 421.5 427.5 256 507V5.5C367 5.5 472 67.5 505.5 128.5Z" fill="#CCB6FF"/>
<path d="M378.674 199.04C385.408 158.897 372.31 136.064 339.38 130.54C325.894 128.278 313.921 129.493 303.46 134.188C293 138.882 286.796 147.031 284.849 158.634C283.639 165.848 284.653 171.338 287.89 175.105C291.494 178.612 296.744 181.911 303.642 185.003C310.592 187.781 315.373 190.034 317.985 191.762C320.65 193.176 322.817 195.636 324.486 199.14C326.469 202.697 326.961 207.455 325.961 213.414C324.962 219.373 321.768 223.996 316.38 227.284C311.044 230.258 304.926 231.166 298.027 230.009C285.796 227.957 275.243 220.706 266.369 208.254C257.495 195.802 254.294 182.206 256.766 167.466C260.133 147.395 272.072 129.083 292.583 112.533C313.46 95.7208 335.973 89.3404 360.121 93.3913C384.27 97.4422 401.38 107.89 411.452 124.734C421.838 141.631 425.005 162.154 420.955 186.303C414.641 223.937 392.823 265.58 355.5 311.233C318.491 356.938 283.326 388.765 250.005 406.713C242.578 410.626 236.512 412.188 231.807 411.399C221.458 409.663 214.957 402.285 212.305 389.265L182.818 242.121C179.228 225.074 175.274 207.321 170.954 188.862C166.687 170.09 163.539 156.18 161.509 147.134C159.48 138.087 157.477 128.884 155.5 119.524C152.433 103.21 151.478 91.603 152.636 84.7034C153.846 77.4902 156.57 71.8208 160.809 67.6952C165.101 63.256 170.383 61.5625 176.655 62.6147C187.632 64.456 194.707 72.2531 197.882 86.0058C198.402 88.6725 199.622 96.7771 201.542 110.319C220.238 227.601 237.555 314.663 253.493 371.507C280.853 354.493 307.07 329.871 332.146 297.642C357.588 265.151 373.097 232.284 378.674 199.04Z" fill="black"/>
<path d="M6.5 128.5C6.5 356.356 90.5 427.5 256 507V5.5C145 5.5 40 67.5 6.5 128.5Z" fill="#B48BFF"/>
<rect x="214.934" y="364.298" width="39.4726" height="39.4726" fill="black"/>
<rect x="214.934" y="324.825" width="39.4726" height="39.4726" fill="black" fill-opacity="0.32"/>
<rect x="175.461" y="206.408" width="39.4726" height="39.4726" fill="black" fill-opacity="0.32"/>
<rect x="135.988" y="87.9899" width="39.4726" height="39.4726" fill="black" fill-opacity="0.32"/>
<rect x="96.5158" y="127.463" width="39.4726" height="39.4726" fill="black" fill-opacity="0.32"/>
<rect x="135.988" y="245.88" width="39.4726" height="39.4726" fill="black" fill-opacity="0.32"/>
<rect x="175.461" y="364.298" width="39.4726" height="39.4726" fill="black" fill-opacity="0.32"/>
<rect x="175.461" y="324.825" width="39.4726" height="39.4726" fill="black"/>
<rect x="175.461" y="285.353" width="39.4726" height="39.4726" fill="black"/>
<rect x="175.461" y="245.88" width="39.4726" height="39.4726" fill="black"/>
<rect x="135.988" y="206.408" width="39.4726" height="39.4726" fill="black"/>
<rect x="135.988" y="166.935" width="39.4726" height="39.4726" fill="black"/>
<rect x="135.988" y="127.463" width="39.4726" height="39.4726" fill="black"/>
<rect x="96.5158" y="87.9899" width="39.4726" height="39.4726" fill="black"/>
<line x1="423.365" y1="289.053" x2="423.365" y2="44.8168" stroke="black" stroke-width="9"/>
<rect x="397" y="137" width="55" height="55" rx="4" fill="white" stroke="black" stroke-width="5"/>
<ellipse cx="423.5" cy="289" rx="28.5" ry="29" fill="black"/>
<circle cx="423.5" cy="44.5" r="28.5" fill="black"/>
</g>
<defs>
<clipPath id="clip0_770_18067">
<rect width="512" height="512" fill="white"/>
</clipPath>
</defs>
</svg>
