<svg width="24" height="24" viewBox="0 0 24 24" fill="none" xmlns="http://www.w3.org/2000/svg">
<g clip-path="url(#clip0_865_2)">
<mask id="mask0_865_2" style="mask-type:luminance" maskUnits="userSpaceOnUse" x="0" y="0" width="24" height="24">
<path d="M24 0H0V24H24V0Z" fill="white"/>
<path d="M17.29 10.3417C16.3902 8.90202 15.9402 8.18215 15.3642 7.93529C14.8611 7.71969 14.2917 7.71969 13.7886 7.93529C13.2125 8.18216 12.7626 8.90202 11.8628 10.3418L7.6364 17.104C6.63769 18.702 6.13833 19.5009 6.19134 20.1603C6.23754 20.735 6.52953 21.2618 6.99241 21.6056C7.52344 22 8.46562 22 10.35 22H14.5764H18.8028C20.6872 22 21.6294 22 22.1604 21.6056C22.6233 21.2618 22.9153 20.735 22.9615 20.1603C23.0145 19.5009 22.5151 18.702 21.5164 17.104L17.29 10.3417Z" fill="black"/>
</mask>
<g mask="url(#mask0_865_2)">
<path d="M6.85676 8.91113C7.10827 8.8035 7.3926 8.80347 7.64387 8.91113C7.73982 8.95225 7.86864 9.04939 8.07454 9.32031C8.28013 9.59084 8.51918 9.97254 8.86164 10.5205L12.0316 15.5928C12.4112 16.2002 12.6774 16.6268 12.847 16.9629C13.0183 17.3025 13.0498 17.4739 13.0413 17.5801C13.0183 17.8668 12.8718 18.1305 12.64 18.3027C12.5544 18.3663 12.3923 18.4301 12.014 18.4648C11.6393 18.4993 11.1365 18.5 10.4202 18.5H4.08039C3.36387 18.5 2.86058 18.4992 2.48567 18.4648C2.20184 18.4388 2.04006 18.396 1.94075 18.3496L1.85969 18.3027C1.65742 18.1524 1.52052 17.9318 1.47395 17.6865L1.4593 17.5801C1.45078 17.4739 1.48234 17.3024 1.65364 16.9629C1.82321 16.6269 2.0894 16.2003 2.46907 15.5928L5.63899 10.5205C5.9814 9.97262 6.2205 9.59085 6.4261 9.32031C6.63197 9.04944 6.76085 8.95224 6.85676 8.91113ZM10.7503 1.5C11.8548 1.50019 12.7503 2.39561 12.7503 3.5C12.7503 4.60439 11.8548 5.49981 10.7503 5.5C9.64579 5.5 8.75032 4.60457 8.75032 3.5C8.75032 2.46464 9.53701 1.6134 10.5452 1.51074L10.7503 1.5Z" fill="url(#paint0_linear_865_2)" stroke="url(#paint1_linear_865_2)"/>
</g>
<mask id="mask1_865_2" style="mask-type:luminance" maskUnits="userSpaceOnUse" x="6" y="7" width="17" height="15">
<path d="M17.29 10.3417C16.3902 8.90202 15.9402 8.18215 15.3642 7.93529C14.8611 7.71969 14.2917 7.71969 13.7886 7.93529C13.2125 8.18216 12.7626 8.90202 11.8628 10.3418L7.6364 17.104C6.63769 18.702 6.13833 19.5009 6.19134 20.1603C6.23754 20.735 6.52953 21.2618 6.99241 21.6056C7.52344 22 8.46562 22 10.35 22H14.5764H18.8028C20.6872 22 21.6294 22 22.1604 21.6056C22.6233 21.2618 22.9153 20.735 22.9615 20.1603C23.0145 19.5009 22.5151 18.702 21.5164 17.104L17.29 10.3417Z" fill="white"/>
</mask>
<g mask="url(#mask1_865_2)">
<g filter="url(#filter0_f_865_2)">
<path d="M6.65942 8.45117C7.03667 8.28959 7.46385 8.28952 7.84106 8.45117C8.27305 8.6363 8.61064 9.17624 9.2854 10.2559L12.4553 15.3281C13.2042 16.5264 13.579 17.1257 13.5393 17.6201C13.5047 18.0512 13.2849 18.4463 12.9377 18.7041C12.5395 18.9998 11.8331 19 10.4202 19H4.08032C2.66704 19 1.96004 18.9999 1.56177 18.7041C1.21476 18.4463 0.995829 18.0511 0.961185 17.6201C0.921488 17.1256 1.2962 16.5265 2.04517 15.3281L5.21509 10.2559C5.88978 9.17634 6.22746 8.63629 6.65942 8.45117ZM10.7502 1C12.1308 1.00013 13.2502 2.11937 13.2502 3.5C13.2502 4.88063 12.1308 5.99987 10.7502 6C9.36953 6 8.25024 4.88071 8.25024 3.5C8.25024 2.11929 9.36953 1 10.7502 1Z" fill="url(#paint2_linear_865_2)"/>
</g>
</g>
<path d="M17.29 10.3417C16.3902 8.90202 15.9402 8.18215 15.3642 7.93529C14.8611 7.71969 14.2917 7.71969 13.7886 7.93529C13.2125 8.18216 12.7626 8.90202 11.8628 10.3418L7.6364 17.104C6.63769 18.702 6.13833 19.5009 6.19134 20.1603C6.23754 20.735 6.52953 21.2618 6.99241 21.6056C7.52344 22 8.46562 22 10.35 22H14.5764H18.8028C20.6872 22 21.6294 22 22.1604 21.6056C22.6233 21.2618 22.9153 20.735 22.9615 20.1603C23.0145 19.5009 22.5151 18.702 21.5164 17.104L17.29 10.3417Z" fill="url(#paint3_linear_865_2)"/>
<path d="M13.7881 7.93597C14.2912 7.72037 14.8612 7.72038 15.3643 7.93597C15.9401 8.18299 16.3904 8.90281 17.29 10.3422L21.5166 17.1039C22.0216 17.9119 22.3988 18.5157 22.6416 19.0004H21.791C21.5719 18.6097 21.2731 18.1291 20.8809 17.5014L16.6543 10.7397C16.1967 10.0076 15.8797 9.50196 15.6084 9.14496C15.337 8.78779 15.1763 8.67074 15.0684 8.62445C14.7541 8.48994 14.3982 8.48984 14.084 8.62445C13.9761 8.67071 13.8156 8.78749 13.5439 9.14496C13.2727 9.50197 12.9566 10.0075 12.499 10.7397L8.27246 17.5014C7.88024 18.129 7.58145 18.6097 7.3623 19.0004H6.5127C6.6353 18.7556 6.79109 18.48 6.98145 18.1635L7.63672 17.1039L11.8623 10.3422C12.7057 8.99279 13.1544 8.27563 13.6816 7.98773L13.7881 7.93597Z" fill="url(#paint4_linear_865_2)"/>
</g>
<defs>
<filter id="filter0_f_865_2" x="-3.04167" y="-3" width="20.5838" height="26" filterUnits="userSpaceOnUse" color-interpolation-filters="sRGB">
<feFlood flood-opacity="0" result="BackgroundImageFix"/>
<feBlend mode="normal" in="SourceGraphic" in2="BackgroundImageFix" result="shape"/>
<feGaussianBlur stdDeviation="2" result="effect1_foregroundBlur_865_2"/>
</filter>
<linearGradient id="paint0_linear_865_2" x1="7.25" y1="1" x2="7.25" y2="19" gradientUnits="userSpaceOnUse">
<stop stop-color="#575757"/>
<stop offset="1" stop-color="#151515"/>
</linearGradient>
<linearGradient id="paint1_linear_865_2" x1="7.25024" y1="0.5" x2="7.25024" y2="17.5" gradientUnits="userSpaceOnUse">
<stop stop-color="#989898"/>
<stop offset="0.221154" stop-color="#4B4B4B"/>
<stop offset="0.360577" stop-color="#3B3B3B"/>
<stop offset="0.404415" stop-color="#8B8B8B"/>
<stop offset="1" stop-color="#242424"/>
</linearGradient>
<linearGradient id="paint2_linear_865_2" x1="7.25" y1="1" x2="7.25" y2="19" gradientUnits="userSpaceOnUse">
<stop stop-color="#575757"/>
<stop offset="1" stop-color="#151515"/>
</linearGradient>
<linearGradient id="paint3_linear_865_2" x1="14.576" y1="6" x2="14.576" y2="22" gradientUnits="userSpaceOnUse">
<stop stop-color="#E3E3E5" stop-opacity="0.6"/>
<stop offset="1" stop-color="#BBBBC0" stop-opacity="0.6"/>
</linearGradient>
<linearGradient id="paint4_linear_865_2" x1="14.577" y1="7.774" x2="14.577" y2="18.5" gradientUnits="userSpaceOnUse">
<stop stop-color="white"/>
<stop offset="1" stop-color="white" stop-opacity="0"/>
</linearGradient>
<clipPath id="clip0_865_2">
<rect width="24" height="24" fill="white"/>
</clipPath>
</defs>
</svg>
