<svg width="438" height="438" viewBox="0 0 438 438" fill="none" xmlns="http://www.w3.org/2000/svg">
<rect width="438" height="438" rx="128" fill="url(#paint0_linear_1_16)"/>
<path d="M211.639 335.857C194.165 333.916 176.137 326.982 161.529 316.627C141.744 302.574 139.525 293.514 152.654 280.431C156.259 276.826 164.58 270.169 165.181 270.4C165.366 270.493 166.799 272.111 168.324 274.052C178.124 286.302 193.24 295.548 208.819 298.922C224.351 302.297 240.854 300.309 255.323 293.282C268.867 286.718 281.117 274.607 287.912 261.063C292.766 251.401 294.985 242.341 295.401 230.692L295.678 222.787L300.44 222.463C308.622 221.909 318.006 222.926 322.49 224.913C325.31 226.161 327.76 228.473 329.146 231.2C333.723 240.076 327.344 265.87 315.833 284.915C307.929 297.998 296.002 310.34 282.827 318.984C268.636 328.276 252.503 334.008 235.214 335.95C230.222 336.504 216.816 336.458 211.639 335.857Z" fill="#B546FF"/>
<path d="M18.7353 292.034C18.8277 291.757 21.6938 290.231 25.1145 288.614C55.9939 274.191 77.1656 257.041 88.1213 237.672C92.9289 229.166 95.6562 221.77 100.464 204.25C103.838 191.908 104.855 188.718 108.415 179.704C115.303 162.323 123.3 149.934 135.827 137.36C163.147 109.948 201.284 97.3281 239.791 102.968C252.965 104.909 263.69 108.33 275.894 114.478C286.063 119.609 291.287 122.799 303.167 130.981C318.468 141.613 325.541 145.542 335.341 148.963C340.888 150.905 348.839 152.661 355.126 153.401C361.32 154.094 378.979 153.678 386.144 152.708C393.54 151.644 408.333 148.593 415.451 146.652C423.218 144.479 424.188 145.08 417.763 148.085C391.367 160.381 299.145 196.946 234.059 220.845C165.366 246.085 66.8571 279.322 28.4428 290.231C20.2607 292.543 18.4579 292.866 18.7353 292.034ZM150.019 233.049L159.634 229.906L159.31 225.237C158.617 213.357 161.899 200.321 168.278 189.781C184.966 162.138 220.237 152.014 249.313 166.529C257.634 170.69 265.677 177.346 270.809 184.28C272.334 186.314 273.813 188.025 274.044 188.025C274.83 188.025 292.766 180.721 293.506 180.12C294.569 179.242 294.245 177.855 292.674 176.56C291.888 175.867 288.837 173.232 285.878 170.643C282.92 168.101 278.667 164.495 276.356 162.6C264.753 153.124 251.717 146.837 237.341 143.786C232.117 142.676 230.545 142.538 221.808 142.538C213.025 142.538 211.546 142.63 206.276 143.786C192.871 146.606 181.175 152.107 171.144 160.15C166.29 164.125 159.495 171.337 155.843 176.468C149.649 185.159 144.102 197.871 141.652 209.104C141.189 211.369 139.987 218.072 139.017 224.035L137.26 234.852L138.37 235.73C138.97 236.193 139.664 236.516 139.941 236.424C140.219 236.331 144.749 234.806 150.019 233.049ZM176.784 224.128C209.281 213.172 229.343 205.868 262.858 192.647L272.427 188.857L270.947 186.73C268.451 183.125 259.483 174.48 255.6 171.845C244.598 164.495 231.84 160.843 219.035 161.398C187.416 162.739 162.685 187.285 160.697 219.228C160.42 223.943 160.789 229.166 161.437 229.166C161.621 229.166 168.509 226.901 176.784 224.128Z" fill="#B546FF"/>
<path d="M214.181 281.356C204.335 280.2 194.119 276.132 185.983 270.169C183.071 267.997 177.662 262.958 177.662 262.357C177.662 261.432 178.864 262.172 182.423 265.269C189.404 271.371 195.737 274.977 204.011 277.612C210.252 279.599 214.505 280.2 221.346 280.2C228.188 280.2 232.441 279.599 238.681 277.612C247.418 274.838 254.86 270.493 261.332 264.483C270.577 255.746 277.142 243.358 278.944 231.293C279.222 229.49 279.499 227.363 279.638 226.531C279.73 225.745 280.146 224.96 280.516 224.821C281.117 224.636 281.163 225.006 280.932 227.225C280.47 231.709 278.944 238.689 277.696 242.202C268.266 268.366 242.009 284.546 214.181 281.356Z" fill="#B546FF"/>
<defs>
<linearGradient id="paint0_linear_1_16" x1="219" y1="0" x2="219" y2="438" gradientUnits="userSpaceOnUse">
<stop/>
<stop offset="1" stop-color="#380046"/>
</linearGradient>
</defs>
</svg>
