<svg width="256" height="256" viewBox="0 0 256 256" fill="none" xmlns="http://www.w3.org/2000/svg">
<path d="M123.697 196.3C113.485 195.165 102.947 191.113 94.4097 185.06C82.8459 176.847 81.549 171.551 89.2222 163.905C91.3296 161.798 96.1929 157.907 96.5441 158.042C96.6522 158.096 97.4898 159.042 98.3814 160.177C104.109 167.336 112.944 172.74 122.049 174.712C131.127 176.685 140.773 175.523 149.23 171.416C157.146 167.58 164.306 160.501 168.278 152.584C171.114 146.938 172.411 141.642 172.655 134.834L172.817 130.213L175.6 130.024C180.382 129.7 185.866 130.294 188.487 131.456C190.135 132.186 191.567 133.537 192.378 135.131C195.053 140.318 191.324 155.394 184.597 166.526C179.976 174.172 173.006 181.386 165.306 186.438C157.011 191.869 147.582 195.219 137.477 196.354C134.559 196.678 126.724 196.651 123.697 196.3Z" fill="white"/>
<path d="M10.9503 170.687C11.0043 170.525 12.6795 169.633 14.6788 168.687C32.727 160.258 45.1014 150.234 51.5047 138.913C54.3146 133.942 55.9087 129.619 58.7186 119.379C60.6909 112.165 61.2853 110.301 63.3657 105.032C67.3914 94.8735 72.0656 87.6326 79.3875 80.2837C95.3553 64.2618 117.645 56.8859 140.152 60.1821C147.852 61.3168 154.12 63.3162 161.253 66.9096C167.197 69.9086 170.25 71.7729 177.194 76.5551C186.137 82.7693 190.27 85.0659 195.998 87.0652C199.24 88.2 203.888 89.2267 207.562 89.659C211.183 90.0643 221.504 89.8211 225.691 89.2537C230.014 88.6323 238.66 86.8491 242.821 85.7143C247.36 84.4445 247.927 84.7957 244.172 86.5519C228.744 93.7387 174.843 115.11 136.801 129.079C96.6522 143.831 39.0763 163.257 16.6241 169.633C11.8419 170.984 10.7882 171.173 10.9503 170.687ZM87.6821 136.211L93.3019 134.374L93.1128 131.645C92.7075 124.702 94.6258 117.083 98.3543 110.922C108.108 94.7654 128.723 88.8484 145.717 97.3322C150.581 99.7638 155.282 103.654 158.281 107.707C159.172 108.896 160.037 109.896 160.172 109.896C160.631 109.896 171.114 105.627 171.547 105.276C172.168 104.762 171.979 103.952 171.06 103.195C170.601 102.79 168.818 101.25 167.089 99.7368C165.36 98.2508 162.874 96.1434 161.523 95.0356C154.741 89.4969 147.122 85.8224 138.72 84.0392C135.667 83.3908 134.748 83.3097 129.641 83.3097C124.508 83.3097 123.643 83.3637 120.563 84.0392C112.728 85.6873 105.892 88.9025 100.029 93.6037C97.1926 95.9272 93.2209 100.142 91.0864 103.141C87.466 108.221 84.2238 115.651 82.7918 122.216C82.5216 123.54 81.8192 127.458 81.2518 130.943L80.2251 137.265L80.8735 137.778C81.2248 138.049 81.63 138.238 81.7921 138.184C81.9543 138.13 84.602 137.238 87.6821 136.211ZM103.326 130.997C122.32 124.594 134.045 120.325 153.634 112.597L159.226 110.382L158.362 109.139C156.903 107.032 151.661 101.979 149.392 100.439C142.961 96.1434 135.504 94.0089 128.02 94.3331C109.54 95.1167 95.0851 109.463 93.9233 128.133C93.7612 130.889 93.9774 133.942 94.3556 133.942C94.4637 133.942 98.4894 132.618 103.326 130.997Z" fill="white"/>
<path d="M125.183 164.446C119.429 163.77 113.458 161.392 108.702 157.907C107 156.637 103.839 153.692 103.839 153.341C103.839 152.801 104.542 153.233 106.622 155.043C110.702 158.61 114.403 160.717 119.239 162.257C122.887 163.419 125.373 163.77 129.371 163.77C133.37 163.77 135.856 163.419 139.503 162.257C144.61 160.636 148.96 158.096 152.742 154.584C158.146 149.477 161.982 142.237 163.036 135.185C163.198 134.131 163.36 132.888 163.441 132.402C163.495 131.943 163.739 131.483 163.955 131.402C164.306 131.294 164.333 131.51 164.198 132.807C163.928 135.428 163.036 139.508 162.307 141.561C156.795 156.853 141.448 166.31 125.183 164.446Z" fill="white"/>
</svg>
